<svg width="146" height="42" viewBox="0 0 146 42" fill="none" xmlns="http://www.w3.org/2000/svg">
<path d="M42.7141 11.4875H53.6886V13.8721H45.5347V18.9747H52.663V21.385H45.5347V28.5902H42.7141V11.4875ZM56.7337 11.2311H59.6055V13.667H56.7337V11.2311ZM56.8106 15.7952H59.503L59.5286 28.5902H56.8106V15.7952ZM63.3944 16.7696C64.1637 16.3764 65.0953 16.0602 66.1893 15.8209C67.3004 15.5644 68.3603 15.4362 69.3688 15.4362C71.1637 15.4362 72.4885 15.8123 73.3432 16.5645C74.1979 17.3166 74.6253 18.4875 74.6253 20.0773V28.5902H71.933V20.4363C71.933 18.6414 70.9159 17.744 68.8817 17.744C67.9073 17.744 66.9757 17.9063 66.0868 18.2311V28.5902H63.3944V16.7696ZM83.9828 15.4362C85.3845 15.4362 86.5725 15.7781 87.5469 16.4619C88.5384 17.1286 89.0255 18.214 89.0085 19.7183V25.8722C89.0085 27.0346 88.4956 27.8466 87.47 28.3082C86.4443 28.7526 84.9828 28.9748 83.0853 28.9748C81.5639 28.9748 80.3075 28.6586 79.3161 28.0261C78.3246 27.3936 77.8289 26.3338 77.8289 24.8466C77.8289 23.4449 78.2306 22.3936 79.034 21.6927C79.8545 20.9918 81.0084 20.6414 82.4956 20.6414C84.034 20.6414 85.3161 20.9491 86.3418 21.5645V20.3337C86.3418 18.5901 85.2905 17.7183 83.1879 17.7183C82.4357 17.7183 81.6836 17.838 80.9315 18.0773C80.1793 18.2995 79.5554 18.6158 79.0596 19.026V16.5132C79.5383 16.2055 80.2306 15.9491 81.1366 15.7439C82.0597 15.5388 83.0084 15.4362 83.9828 15.4362ZM83.393 26.8722C84.4699 26.8722 85.2306 26.7953 85.6751 26.6415C86.1195 26.4876 86.3418 26.1799 86.3418 25.7184V23.2312C85.47 22.8551 84.5127 22.6671 83.4699 22.6671C82.4956 22.6671 81.752 22.838 81.2391 23.1799C80.7434 23.5218 80.4955 24.0346 80.4955 24.7184C80.4955 25.4363 80.7776 25.9748 81.3417 26.3338C81.9229 26.6928 82.6067 26.8722 83.393 26.8722ZM92.8168 16.7696C93.586 16.3764 94.5177 16.0602 95.6117 15.8209C96.7228 15.5644 97.7826 15.4362 98.7912 15.4362C100.586 15.4362 101.911 15.8123 102.766 16.5645C103.62 17.3166 104.048 18.4875 104.048 20.0773V28.5902H101.355V20.4363C101.355 18.6414 100.338 17.744 98.304 17.744C97.3296 17.744 96.398 17.9063 95.5091 18.2311V28.5902H92.8168V16.7696ZM113.508 28.8466C111.696 28.8466 110.183 28.3253 108.969 27.2825C107.773 26.2398 107.174 24.556 107.174 22.2312C107.174 19.838 107.764 18.1115 108.944 17.0516C110.14 15.9747 111.653 15.4362 113.482 15.4362C114.867 15.4362 116.183 15.6927 117.431 16.2055V18.6158C116.132 18.0687 114.944 17.7952 113.867 17.7952C112.516 17.7952 111.508 18.1371 110.841 18.8209C110.174 19.4876 109.841 20.5559 109.841 22.026C109.841 23.5645 110.166 24.6927 110.815 25.4107C111.465 26.1116 112.508 26.462 113.944 26.462C115.106 26.462 116.277 26.1799 117.456 25.6158V28.0261C116.226 28.5731 114.909 28.8466 113.508 28.8466ZM125.869 15.4106C127.869 15.4106 129.331 16.0602 130.254 17.3593C131.194 18.6414 131.656 20.4448 131.638 22.7696H122.613C122.698 24.0346 123.066 25.0004 123.715 25.6671C124.382 26.3167 125.322 26.6415 126.536 26.6415C127.322 26.6415 128.074 26.5475 128.792 26.3594C129.51 26.1543 130.143 25.8979 130.69 25.5902V28.103C129.356 28.6842 127.826 28.9748 126.1 28.9748C124.168 28.9748 122.647 28.3936 121.536 27.2312C120.442 26.0517 119.895 24.385 119.895 22.2312C119.895 20.026 120.416 18.3422 121.459 17.1798C122.502 16.0003 123.972 15.4106 125.869 15.4106ZM125.792 17.6157C124.886 17.6157 124.177 17.8551 123.664 18.3337C123.151 18.8123 122.818 19.6243 122.664 20.7696H128.895C128.775 19.6756 128.467 18.8807 127.972 18.385C127.476 17.8722 126.75 17.6157 125.792 17.6157Z" fill="#EEEEEE"/>
<rect width="9.45407" height="41.5979" rx="4.72703" fill="#6FCF97"/>
<path d="M13.2358 17.537C13.2358 15.1614 15.1616 13.2357 17.5371 13.2357C19.9126 13.2357 21.8383 15.1614 21.8383 17.537V29.0069C21.8383 31.3824 19.9126 33.3081 17.5371 33.3081C15.1616 33.3081 13.2358 31.3824 13.2358 29.0069V17.537Z" fill="#27AE60"/>
<rect x="13.2358" y="1.89087" width="8.60246" height="10.0362" rx="4.30123" fill="#27AE60"/>
<rect x="25.7773" y="15.5574" width="8.60246" height="10.0362" rx="4.30123" fill="#6FCF97"/>
</svg>
